<?xml version="1.0" encoding="UTF-8" standalone="no"?>
<!-- Created with Inkscape (http://www.inkscape.org/) -->

<svg
   xmlns:dc="http://purl.org/dc/elements/1.1/"
   xmlns:cc="http://creativecommons.org/ns#"
   xmlns:rdf="http://www.w3.org/1999/02/22-rdf-syntax-ns#"
   xmlns:svg="http://www.w3.org/2000/svg"
   xmlns="http://www.w3.org/2000/svg"
   xmlns:sodipodi="http://sodipodi.sourceforge.net/DTD/sodipodi-0.dtd"
   xmlns:inkscape="http://www.inkscape.org/namespaces/inkscape"
   width="210mm"
   height="297mm"
   viewBox="0 0 210 297"
   version="1.1"
   id="svg8"
   inkscape:version="0.92.2 5c3e80d, 2017-08-06"
   sodipodi:docname="circle-mark.svg">
  <defs
     id="defs2" />
  <sodipodi:namedview
     id="base"
     pagecolor="#ffffff"
     bordercolor="#666666"
     borderopacity="1.0"
     inkscape:pageopacity="0.0"
     inkscape:pageshadow="2"
     inkscape:zoom="0.35"
     inkscape:cx="-628.57142"
     inkscape:cy="560"
     inkscape:document-units="mm"
     inkscape:current-layer="g86"
     showgrid="false"
     inkscape:window-width="1440"
     inkscape:window-height="856"
     inkscape:window-x="0"
     inkscape:window-y="0"
     inkscape:window-maximized="1" />
  <metadata
     id="metadata5">
    <rdf:RDF>
      <cc:Work
         rdf:about="">
        <dc:format>image/svg+xml</dc:format>
        <dc:type
           rdf:resource="http://purl.org/dc/dcmitype/StillImage" />
        <dc:title></dc:title>
      </cc:Work>
    </rdf:RDF>
  </metadata>
  <g
     inkscape:label="Layer 1"
     inkscape:groupmode="layer"
     id="layer1">
    <g
       id="layer1-0"
       inkscape:label="Layer 1"
       transform="translate(-134.33929,-189.47622)">
      <g
         inkscape:export-ydpi="300"
         inkscape:export-xdpi="300"
         style="fill:#333333;fill-opacity:1"
         transform="translate(52.916667,55.940476)"
         id="g86">
        <path
           style="fill:#f9f9f9;fill-opacity:1;stroke:none;stroke-width:1.72339571;stroke-miterlimit:4;stroke-dasharray:none;stroke-opacity:1"
           id="path817"
           sodipodi:type="arc"
           sodipodi:cx="18.376194"
           sodipodi:cy="222.19525"
           sodipodi:rx="67.73333"
           sodipodi:ry="67.73333"
           sodipodi:start="0"
           sodipodi:end="6.1423547"
           sodipodi:open="true"
           d="m 86.109524,222.19525 a 67.73333,67.73333 0 0 1 -65.349091,67.69136 67.73333,67.73333 0 0 1 -69.949717,-62.92584 67.73333,67.73333 0 0 1 60.424578,-72.12138 67.73333,67.73333 0 0 1 74.203653,57.84844" />
        <path
           style="fill:#333333;fill-opacity:1;stroke-width:0.21168822"
           d="m 21.425966,277.78919 c 3.523476,-0.97199 6.624636,-4.04007 7.81007,-7.72677 1.563567,-4.86269 -1.642437,-9.36542 -6.452762,-9.06269 -2.40983,0.15166 -4.320289,1.44639 -5.414373,3.66936 -0.727974,1.47913 -0.733641,4.20729 -0.0116,5.59343 1.11058,2.13205 3.094109,3.51884 5.396386,3.77287 l 1.299734,0.14343 -0.74091,0.56034 c -1.165307,0.88132 -2.531889,1.23931 -4.71746,1.23581 -3.512867,-0.005 -5.676199,-0.79309 -7.325075,-2.66631 -1.8539673,-2.10622 -2.6615393,-4.72129 -2.6403613,-8.55004 0.01303,-2.35651 0.13195,-3.18669 1.086572,-7.58574 0.5895593,-2.7168 1.1221933,-4.9899 1.1836293,-5.05133 0.06143,-0.0614 0.720068,-0.005 1.463631,0.12373 1.915621,0.33359 5.73683,0.29169 7.720743,-0.0847 5.582641,-1.05901 10.657693,-4.09191 14.164736,-8.465 1.644282,-2.05032 3.475597,-5.6684 4.125169,-8.14999 0.639163,-2.44182 0.688987,-7.3259 0.100418,-9.84351 -1.706378,-7.29901 -5.352944,-12.89853 -13.470971,-20.68549 l -3.468508,-3.32706 0.887057,-4.50539 c 1.153127,-5.85682 1.402931,-8.24925 1.244028,-11.91451 -0.183963,-4.24336 -1.060034,-7.51113 -3.056702,-11.40162 -3.019912,-5.88427 -6.961299,-7.43365 -10.33298,-4.06198 -1.3866613,1.38666 -2.6948983,3.93094 -3.4271103,6.66508 -0.489666,1.82844 -0.543886,2.42426 -0.559934,6.15242 -0.01544,3.5922 0.04621,4.4136 0.475064,6.32924 1.410851,6.3018 4.2202343,11.98556 8.8360103,17.87644 0.806981,1.0299 1.590183,2.04228 1.740446,2.2497 0.230048,0.31756 0.08792,1.22739 -0.899673,5.75946 -0.645087,2.96029 -1.172882,5.43971 -1.172882,5.50982 0,0.0701 -0.738261,0.0797 -1.640585,0.0213 -6.0599603,-0.39223 -12.69096189,4.44262 -14.58431169,10.63383 -0.61995661,2.02724 -0.51131931,6.19896 0.2257714,8.67017 1.4796513,4.96077 4.33021739,8.81491 8.08822099,10.93581 0.625284,0.35289 1.136883,0.70869 1.136883,0.79067 0,0.0819 -0.473722,2.31877 -1.052708,4.97068 -0.578992,2.65189 -1.162742,5.64785 -1.297227,6.65769 -0.9801792,7.35991 2.44651,13.10131 8.7979803,14.74087 1.519121,0.39216 5.094416,0.40314 6.483603,0.0199 z m -8.528699,-28.08304 c -0.616977,-0.12885 -1.197037,-0.30414 -1.289019,-0.3895 -0.122702,-0.11389 3.176938,-16.41958 4.186633,-20.68893 0.09589,-0.40544 0.188322,-0.43872 0.761729,-0.27427 1.920139,0.55069 4.072773,2.57927 4.89112,4.60926 0.426724,1.05852 0.4867,1.57145 0.487677,4.17059 0.0011,2.84993 -0.02113,3.00148 -0.578676,3.94992 -0.318884,0.54244 -1.366741,1.71852 -2.328568,2.61349 -1.830583,1.70332 -1.780086,1.797 0.441725,0.81951 5.637557,-2.48026 8.62128,-7.38264 7.585581,-12.46343 -0.90283,-4.42894 -4.420907,-8.66874 -8.774121,-10.57411 -0.628136,-0.27494 -0.874751,-0.49788 -0.809717,-0.73204 0.05141,-0.18519 0.495956,-2.28953 0.987827,-4.67631 0.491873,-2.38678 0.927861,-4.37947 0.968858,-4.42819 0.04101,-0.0487 0.622119,0.5199 1.291373,1.2636 0.669258,0.7437 2.588956,2.83165 4.265999,4.63987 5.653292,6.09554 6.533709,7.29851 7.581317,10.35887 0.429668,1.25516 0.572037,2.15391 0.648746,4.0954 0.128054,3.24105 -0.39997,5.67284 -1.866108,8.5943 -2.426115,4.8343 -6.300139,7.92595 -11.318316,9.03253 -1.57695,0.34774 -5.633214,0.3929 -7.13406,0.0794 z m -5.1805603,-2.22141 c -1.986881,-1.48221 -3.1039266,-3.24148 -3.8995406,-6.14153 -0.3602563,-1.31318 -0.4327241,-2.07359 -0.3705878,-3.88889 0.071994,-2.10367 0.1309098,-2.36514 0.8695339,-3.85966 1.3220335,-2.67497 3.7107255,-4.54847 6.8158628,-5.34581 1.193753,-0.30654 2.442858,-0.42763 2.442858,-0.23682 0,0.17075 -4.2434323,19.71057 -4.3369193,19.97029 -0.148408,0.41231 -0.421046,0.32313 -1.521207,-0.49758 z m 8.8126863,-50.39087 c -1.111067,-1.14758 -2.313153,-2.51519 -2.671312,-3.03912 -1.684879,-2.46473 -3.58517,-7.20299 -4.1082023,-10.24352 -0.308718,-1.7947 -0.158169,-5.26306 0.2724523,-6.27656 0.483791,-1.13863 0.924236,-1.47341 1.938399,-1.47341 1.981493,0 4.94408,2.28658 6.569062,5.07014 2.45083,4.19822 3.023458,9.57116 1.715743,16.09867 -0.291566,1.45536 -0.530483,2.67641 -0.530932,2.71345 -0.0027,0.23652 -1.455582,-1.06317 -3.18521,-2.84965 z"
           id="path77"
           inkscape:connector-curvature="0" />
      </g>
    </g>
  </g>
</svg>
