<?xml version="1.0" encoding="UTF-8" standalone="no"?>
<!-- Created with Inkscape (http://www.inkscape.org/) -->

<svg
   xmlns:dc="http://purl.org/dc/elements/1.1/"
   xmlns:cc="http://creativecommons.org/ns#"
   xmlns:rdf="http://www.w3.org/1999/02/22-rdf-syntax-ns#"
   xmlns:svg="http://www.w3.org/2000/svg"
   xmlns="http://www.w3.org/2000/svg"
   xmlns:xlink="http://www.w3.org/1999/xlink"
   xmlns:sodipodi="http://sodipodi.sourceforge.net/DTD/sodipodi-0.dtd"
   xmlns:inkscape="http://www.inkscape.org/namespaces/inkscape"
   width="339.6597mm"
   height="200.94783mm"
   viewBox="0 0 339.6597 200.94783"
   version="1.1"
   id="svg8"
   inkscape:version="0.92.2 5c3e80d, 2017-08-06"
   sodipodi:docname="synthesia_logo.svg">
  <defs
     id="defs2">
    <linearGradient
       inkscape:collect="always"
       id="linearGradient92">
      <stop
         style="stop-color:#ff00cc;stop-opacity:1"
         offset="0"
         id="stop88" />
      <stop
         style="stop-color:#aa00d4;stop-opacity:1"
         offset="1"
         id="stop90" />
    </linearGradient>
    <linearGradient
       inkscape:collect="always"
       xlink:href="#linearGradient92"
       id="linearGradient94"
       x1="-117.17262"
       y1="179.07143"
       x2="257.0238"
       y2="180.58333"
       gradientUnits="userSpaceOnUse" />
    <linearGradient
       inkscape:collect="always"
       xlink:href="#linearGradient92"
       id="linearGradient98"
       gradientUnits="userSpaceOnUse"
       x1="-117.17262"
       y1="179.07143"
       x2="257.0238"
       y2="180.58333" />
    <linearGradient
       inkscape:collect="always"
       xlink:href="#linearGradient92"
       id="linearGradient100"
       gradientUnits="userSpaceOnUse"
       x1="-117.17262"
       y1="179.07143"
       x2="257.0238"
       y2="180.58333" />
  </defs>
  <sodipodi:namedview
     id="base"
     pagecolor="#ffffff"
     bordercolor="#666666"
     borderopacity="1.0"
     inkscape:pageopacity="0.0"
     inkscape:pageshadow="2"
     inkscape:zoom="0.35"
     inkscape:cx="296.56977"
     inkscape:cy="491.31114"
     inkscape:document-units="mm"
     inkscape:current-layer="layer1"
     showgrid="false"
     inkscape:window-width="1440"
     inkscape:window-height="856"
     inkscape:window-x="0"
     inkscape:window-y="0"
     inkscape:window-maximized="1"
     fit-margin-top="0"
     fit-margin-left="0"
     fit-margin-right="0"
     fit-margin-bottom="0" />
  <metadata
     id="metadata5">
    <rdf:RDF>
      <cc:Work
         rdf:about="">
        <dc:format>image/svg+xml</dc:format>
        <dc:type
           rdf:resource="http://purl.org/dc/dcmitype/StillImage" />
        <dc:title></dc:title>
      </cc:Work>
    </rdf:RDF>
  </metadata>
  <g
     inkscape:label="Layer 1"
     inkscape:groupmode="layer"
     id="layer1"
     transform="translate(50.497178,-138.35443)">
    <g
       id="g86"
       transform="translate(52.916667,55.940476)"
       style="fill:url(#linearGradient94);fill-opacity:1"
       inkscape:export-xdpi="300"
       inkscape:export-ydpi="300">
      <path
         inkscape:connector-curvature="0"
         id="path77"
         d="m -61.79591,282.8487 c 6.435455,-1.77529 12.099572,-7.37899 14.264709,-14.11257 2.855779,-8.88148 -2.99983,-17.10548 -11.785654,-16.55255 -4.401439,0.27699 -7.890798,2.64175 -9.889081,6.7019 -1.329613,2.70154 -1.339964,7.68442 -0.02122,10.21611 2.028412,3.89409 5.651238,6.427 9.85623,6.89098 l 2.373901,0.26195 -1.353236,1.02345 c -2.128376,1.60967 -4.624372,2.26353 -8.616209,2.25714 -6.416079,-0.0102 -10.367305,-1.44853 -13.378893,-4.86987 -3.386182,-3.84691 -4.861163,-8.62323 -4.822486,-15.61624 0.0238,-4.30406 0.241,-5.82033 1.984564,-13.85498 1.076803,-4.96211 2.049634,-9.11381 2.161843,-9.22602 0.112209,-0.11223 1.315169,-0.0102 2.673254,0.22599 3.498791,0.60928 10.478035,0.53276 14.101558,-0.15459 10.196418,-1.93423 19.465754,-7.47368 25.871196,-15.46091 3.0032,-3.74481 6.348008,-10.35305 7.534419,-14.88555 1.167399,-4.45986 1.258401,-13.38041 0.183407,-17.97869 -3.116615,-13.33128 -9.776889,-23.55855 -24.604067,-37.78104 l -6.335061,-6.0767 1.620166,-8.2289 c 2.106131,-10.69719 2.562386,-15.06685 2.272157,-21.76126 -0.335999,-7.75029 -1.9361,-13.71871 -5.582913,-20.824488 -5.515728,-10.74734 -12.714476,-13.57722 -18.872681,-7.41901 -2.532672,2.53265 -4.9221,7.17966 -6.259451,12.17344 -0.894357,3.339558 -0.993387,4.427788 -1.022694,11.237088 -0.0282,6.56099 0.0844,8.06124 0.867684,11.56005 2.576845,11.50992 7.708049,21.89104 16.138536,32.65043 1.473915,1.88108 2.904395,3.73012 3.178842,4.10898 0.420168,0.58001 0.160587,2.24177 -1.643212,10.51938 -1.178214,5.40682 -2.142208,9.93535 -2.142208,10.06341 0,0.12801 -1.3484,0.14555 -2.996446,0.0389 -11.068221,-0.71639 -23.17942,8.11423 -26.637534,19.42218 -1.13232,3.70264 -0.9339,11.32208 0.41236,15.83564 2.702507,9.06059 7.908925,16.09999 14.772736,19.97371 1.142054,0.64454 2.076468,1.29439 2.076468,1.44411 0,0.14971 -0.865234,4.23513 -1.922728,9.0787 -1.057494,4.84356 -2.123688,10.31554 -2.369318,12.15995 -1.790251,13.44252 4.468436,23.9289 16.069078,26.9235 2.774602,0.71625 9.304699,0.7363 11.841986,0.0364 z m -15.577251,-51.29229 c -1.126883,-0.23536 -2.186331,-0.5555 -2.35433,-0.71143 -0.224108,-0.208 5.802517,-29.98955 7.646681,-37.7873 0.175131,-0.74052 0.343958,-0.80131 1.391264,-0.50094 3.507036,1.00581 7.43872,4.71091 8.933386,8.41857 0.77939,1.93335 0.888935,2.87019 0.890718,7.6174 0.0019,5.20525 -0.03859,5.48206 -1.056922,7.21433 -0.582428,0.99075 -2.496286,3.13879 -4.25302,4.77341 -3.343469,3.11103 -3.25124,3.28213 0.80679,1.49679 10.296724,-4.53007 15.746348,-13.48404 13.854694,-22.76384 -1.648974,-8.08923 -8.074569,-15.83303 -16.025504,-19.31309 -1.147261,-0.50216 -1.597682,-0.90937 -1.478904,-1.33705 0.09395,-0.33823 0.90584,-4.18169 1.804221,-8.54104 0.898381,-4.35935 1.694685,-7.99889 1.76957,-8.08787 0.07488,-0.089 1.136263,0.94957 2.358628,2.30791 1.222364,1.35833 4.728599,5.17185 7.791637,8.47449 10.32546,11.13321 11.933498,13.33038 13.846904,18.91995 0.784767,2.2925 1.044797,3.93402 1.184901,7.48006 0.233886,5.91963 -0.730524,10.36117 -3.408353,15.69707 -4.431181,8.82962 -11.506896,14.47637 -20.672352,16.49747 -2.880222,0.63513 -10.288786,0.71762 -13.030009,0.14511 z m -9.462036,-4.05731 c -3.628942,-2.70718 -5.66917,-5.92041 -7.122321,-11.21721 -0.657997,-2.39845 -0.790354,-3.78731 -0.676867,-7.10287 0.1315,-3.84225 0.2391,-4.31981 1.588161,-7.04947 2.414638,-4.88569 6.777464,-8.30755 12.44884,-9.76387 2.180334,-0.55986 4.461767,-0.78103 4.461767,-0.43252 0,0.31187 -7.750423,36.00038 -7.921177,36.47476 -0.271052,0.75305 -0.769015,0.59017 -2.778403,-0.90882 z m 16.095932,-92.03646 c -2.029304,-2.096 -4.22486,-4.59386 -4.879015,-5.5508 -3.077348,-4.50171 -6.548141,-13.15591 -7.503427,-18.70928 -0.563863,-3.27794 -0.288889,-9.61274 0.497616,-11.463828 0.883618,-2.07966 1.688068,-2.69113 3.540392,-2.69113 3.619103,0 9.030122,4.176348 11.998065,9.260378 4.476327,7.66784 5.522202,17.48124 3.133722,29.40343 -0.532529,2.65814 -0.968901,4.88833 -0.969716,4.95598 -0.0053,0.43199 -2.658548,-1.94182 -5.817637,-5.20475 z"
         style="fill:url(#linearGradient98);fill-opacity:1;stroke-width:0.38663816" />
      <text
         id="text81"
         y="214.6012"
         x="-36.285713"
         style="font-style:normal;font-variant:normal;font-weight:normal;font-stretch:normal;font-size:81.1388855px;line-height:125%;font-family:Pacifico;-inkscape-font-specification:Pacifico;letter-spacing:0px;word-spacing:0px;fill:url(#linearGradient100);fill-opacity:1;stroke:none;stroke-width:0.26458332px;stroke-linecap:butt;stroke-linejoin:miter;stroke-opacity:1"
         xml:space="preserve"><tspan
           style="font-style:normal;font-variant:normal;font-weight:normal;font-stretch:normal;font-size:81.1388855px;font-family:Pacifico;-inkscape-font-specification:Pacifico;fill:url(#linearGradient100);fill-opacity:1;stroke-width:0.26458332px"
           y="214.6012"
           x="-36.285713"
           id="tspan79"
           sodipodi:role="line">ynthesia</tspan></text>
    </g>
  </g>
</svg>
